# xmcd
#
# Track frame offsets: 
#        150
#        19776
#        38066
#        60858
#        84622
#        107508
#        137748
#        160050
#        190167
#        209125
#        230758
#
# Disc length: 3305 seconds
#
# Revision: 0
# Processed by: cddbd v1.5.2PL0 Copyright (c) Steve Scherf et al.
# Submitted via: ExactAudioCopy v1.0b1
#
DISCID=8e0ce70b
DTITLE=Robert Terry - Junkyard Nostalgias
DYEAR=1999
DGENRE=Cabaret
TTITLE0=insurance money
TTITLE1=queen of the roller derby
TTITLE2=trouble in this world
TTITLE3=never be
TTITLE4=a sure bet is
TTITLE5=what the scarecrow sees
TTITLE6=hedgehog and lipstick
TTITLE7=ugly stick
TTITLE8=not suppose to have a head
TTITLE9=suspicious
TTITLE10=uncle louie
EXTD=
EXTT0=
EXTT1=
EXTT2=
EXTT3=
EXTT4=
EXTT5=
EXTT6=
EXTT7=
EXTT8=
EXTT9=
EXTT10=
PLAYORDER=
